<svg xmlns="http://www.w3.org/2000/svg" xmlns:svg="http://www.w3.org/2000/svg" id="Layer_1" x="0" y="0" version="1.1" viewBox="0 0 96 96" xml:space="preserve" style="enable-background:new 0 0 96 96"><metadata id="metadata11"/><style id="style2" type="text/css">.st0{fill:#333}</style><g id="XMLID_2_" style="fill:#767676;fill-opacity:1"><path id="XMLID_4_" d="M75.5,59.5c0,0.5-0.2,0.9-0.6,1.3l-2.8,2.8c-0.4,0.4-0.8,0.6-1.3,0.6c-0.5,0-0.9-0.2-1.3-0.6 L48,41.8L26.3,63.5C26,63.9,25.6,64,25.1,64s-0.9-0.2-1.3-0.6l-2.8-2.8c-0.4-0.4-0.6-0.8-0.6-1.3s0.2-0.9,0.6-1.3l25.7-25.7 c0.4-0.4,0.8-0.6,1.3-0.6s0.9,0.2,1.3,0.6l25.7,25.7C75.3,58.6,75.5,59,75.5,59.5z" class="st0" style="fill:#767676;fill-opacity:1"/></g></svg>