<svg xmlns="http://www.w3.org/2000/svg" xmlns:xlink="http://www.w3.org/1999/xlink" id="Layer_1" x="0" y="0" version="1.0" viewBox="0 0 40 40" xml:space="preserve" style="enable-background:new 0 0 40 40"><style type="text/css">.st0{fill:#fff}</style><g><g><g><path d="M19.7,9.1c2.7,0,4.9,2.2,4.9,4.9v2.1c0,0.3-0.3,0.5-0.5,0.5c-0.5,0-1.6,0.2-1.6-0.5V14 c0-1.5-1.2-2.7-2.7-2.7h-9C9.3,11.2,8,12.5,8,14v10c0,0.4,0.1,1.1-0.5,1.1c-0.5,0-1.6,0.2-1.6-0.5V14c0-2.7,2.2-4.9,4.9-4.9H19.7 z" class="st0"/><path d="M10.8,30.9c-2.7,0-4.9-2.2-4.9-4.9v-2.9c0-0.3,0.3-0.5,0.5-0.5c0.5,0,1.6-0.2,1.6,0.5V26 c0,1.5,1.2,2.7,2.7,2.7h9c1.5,0,2.7-1.2,2.7-2.7v-1.6c0-0.4-0.1-1.1,0.5-1.1c0.5,0,1.6-0.2,1.6,0.5v2.1c0,2.7-2.2,4.9-4.9,4.9 L10.8,30.9z" class="st0"/></g></g><path d="M28.4,26.2c-0.4,0.4-1.1,0.4-1.6,0c-0.2-0.2-0.3-0.5-0.3-0.8v-3.7H12.3c-0.1,0-0.3-0.1-0.4-0.2 c-0.1-0.1-0.2-0.3-0.2-0.4v-2.2c0-0.1,0.1-0.3,0.2-0.4c0.1-0.1,0.3-0.2,0.4-0.2h14.2v-3.7c0-0.3,0.1-0.6,0.3-0.8 c0.4-0.4,1.1-0.4,1.6,0l5.4,5.4c0.4,0.4,0.4,1.1,0,1.5L28.4,26.2z" class="st0"/></g></svg>