<svg xmlns="http://www.w3.org/2000/svg" xmlns:svg="http://www.w3.org/2000/svg" id="svg2989" width="100%" height="100%" version="1.1" viewBox="0 -256 1792 1792"><metadata id="metadata2999"/><g id="g2991" transform="matrix(1,0,0,-1,68.338986,1315.7966)"><path id="path2993" d="m 1611,704 q 0,-53 -37,-90 L 923,-38 q -39,-37 -91,-37 -53,0 -90,37 L 91,614 q -38,36 -38,90 0,53 38,91 l 74,75 q 39,37 91,37 53,0 90,-37 L 640,576 v 704 q 0,52 38,90 38,38 90,38 h 128 q 52,0 90,-38 38,-38 38,-90 V 576 l 294,294 q 37,37 90,37 52,0 91,-37 l 75,-75 q 37,-39 37,-91 z" style="fill:#a6a6a6;fill-opacity:1"/></g></svg>