<svg xmlns="http://www.w3.org/2000/svg" xmlns:svg="http://www.w3.org/2000/svg" id="bold" width="512" height="512" enable-background="new 0 0 24 24" version="1.1" viewBox="0 0 24 24"><metadata id="metadata2439"/><path id="path2426" d="m6.75 5.5c-.552 0-1-.448-1-1v-3.5c0-.552.448-1 1-1s1 .448 1 1v3.5c0 .552-.448 1-1 1z" style="fill:#a6a6a6;fill-opacity:1"/><path id="path2428" d="m11.5 5.5c-.552 0-1-.448-1-1v-3.5c0-.552.448-1 1-1s1 .448 1 1v3.5c0 .552-.448 1-1 1z" style="fill:#a6a6a6;fill-opacity:1"/><path id="path2430" d="m16.25 5.5c-.552 0-1-.448-1-1v-3.5c0-.552.448-1 1-1s1 .448 1 1v3.5c0 .552-.448 1-1 1z" style="fill:#a6a6a6;fill-opacity:1"/><path id="path2432" d="m18.25 2.25h-13.5c-1.517 0-2.75 1.233-2.75 2.75v16.25c0 1.517 1.233 2.75 2.75 2.75h13.5c1.517 0 2.75-1.233 2.75-2.75v-16.25c0-1.517-1.233-2.75-2.75-2.75zm-11.25 5.75h5c.552 0 1 .448 1 1s-.448 1-1 1h-5c-.552 0-1-.448-1-1s.448-1 1-1zm10 10h-10c-.552 0-1-.448-1-1s.448-1 1-1h10c.552 0 1 .448 1 1s-.448 1-1 1zm0-4h-10c-.552 0-1-.448-1-1s.448-1 1-1h10c.552 0 1 .448 1 1s-.448 1-1 1z" style="fill:#a6a6a6;fill-opacity:1"/></svg>