<svg xmlns="http://www.w3.org/2000/svg" xmlns:xlink="http://www.w3.org/1999/xlink" id="Layer_1" x="0" y="0" version="1.0" viewBox="0 0 40 40" xml:space="preserve" style="enable-background:new 0 0 40 40"><path d="M15.8,29.1c-0.3,0.1-0.5,0-0.5-0.3V16.2c0-0.3,0.2-0.4,0.5-0.3l11.4,6.3c0.3,0.1,0.3,0.4,0,0.5L15.8,29.1z"/><g><path d="M33.3,28.2c0,2.7-2.2,4.9-4.9,4.9H11.7c-2.7,0-4.9-2.2-4.9-4.9V12c0-2.7,2.2-4.9,4.9-4.9h16.7c2.7,0,4.9,2.2,4.9,4.9V28.2z M11.7,13.7c-1.5,0-2.7,1.2-2.7,2.7v11.8c0,1.5,1.2,2.7,2.7,2.7h16.7c1.5,0,2.7-1.2,2.7-2.7V16.4c0-1.5-1.2-2.7-2.7-2.7H11.7z"/></g></svg>