<svg xmlns="http://www.w3.org/2000/svg" xmlns:svg="http://www.w3.org/2000/svg" id="Layer_1" x="0" y="0" version="1.0" viewBox="0 0 40 40" xml:space="preserve" style="enable-background:new 0 0 40 40"><metadata id="metadata2069"/><style id="style2058" type="text/css">.st0{fill:#fff}</style><path id="path2060" d="M31.7,4.2c-2.5,0-4.7,1.1-6.2,2.9H11.3c-2.7,0-4.9,2.2-4.9,4.9v16.3c0,2.7,2.2,4.9,4.9,4.9H28 c2.7,0,4.9-2.2,4.9-4.9v-7.6c4-0.6,7.1-4,7.1-8.2C40,7.9,36.3,4.2,31.7,4.2z M30.7,28.2c0,1.5-1.2,2.7-2.7,2.7H11.3 c-1.5,0-2.7-1.2-2.7-2.7V16.4c0-1.5,1.2-2.7,2.7-2.7h12.3c0.5,3.6,3.4,6.5,7.1,7V28.2z M35.6,14.4c0.1,0.1,0.2,0.3,0.2,0.5 s-0.1,0.4-0.2,0.5l-1,1c-0.1,0.1-0.3,0.2-0.5,0.2s-0.4-0.1-0.5-0.2l-2-2l-2,2c-0.1,0.1-0.3,0.2-0.5,0.2s-0.4-0.1-0.5-0.2l-1-1 c-0.1-0.1-0.2-0.3-0.2-0.5s0.1-0.4,0.2-0.5l2-2l-2-2c-0.1-0.1-0.2-0.3-0.2-0.5s0.1-0.4,0.2-0.5l1-1c0.1-0.1,0.3-0.2,0.5-0.2 s0.4,0.1,0.5,0.2l2,2l2-2c0.1-0.1,0.3-0.2,0.5-0.2s0.4,0.1,0.5,0.2l1,1c0.1,0.1,0.2,0.3,0.2,0.5s-0.1,0.4-0.2,0.5l-2,2L35.6,14.4z" class="st0" style="fill:#909090;fill-opacity:1"/><path id="path2062" d="M15.4,29.1c-0.3,0.1-0.5,0-0.5-0.3V16.2c0-0.3,0.2-0.4,0.5-0.3l11.4,6.3c0.3,0.1,0.3,0.4,0,0.5L15.4,29.1z" class="st0" style="fill:#909090;fill-opacity:1"/></svg>