<svg xmlns="http://www.w3.org/2000/svg" xmlns:svg="http://www.w3.org/2000/svg" id="Layer_1" x="0" y="0" version="1.0" viewBox="0 0 40 40" xml:space="preserve" style="enable-background:new 0 0 40 40"><metadata id="metadata17"/><style id="style2" type="text/css">.st0{fill:#fff}</style><g id="g10" style="fill:#909090;fill-opacity:1"><path id="path4" d="M34.8,11.2H13.5V9.6c0-1.5-1.2-2.7-2.7-2.7H5.2c-1.5,0-2.7,1.2-2.7,2.7V14v1.2v15.2c0,1.5,1.2,2.7,2.7,2.7 h29.5c1.5,0,2.7-1.2,2.7-2.7V14C37.5,12.5,36.3,11.2,34.8,11.2z M35.3,30.2L35.3,30.2v0.2c0,0.3-0.3,0.5-0.5,0.5H5.2 c-0.3,0-0.5-0.3-0.5-0.5V14.1l0,0V14c0-0.3,0.3-0.5,0.5-0.5h29.5c0.3,0,0.5,0.3,0.5,0.5L35.3,30.2L35.3,30.2z" class="st0" style="fill:#909090;fill-opacity:1"/><path id="path6" d="M31.5,6.9h-2.6c-1.4,0-2.6,1.1-2.7,2.6h8C34.1,8,32.9,6.9,31.5,6.9z" class="st0" style="fill:#909090;fill-opacity:1"/><path id="path8" d="M21.1,6.9h-2.6c-1.4,0-2.6,1.1-2.7,2.6h8C23.7,8,22.5,6.9,21.1,6.9z" class="st0" style="fill:#909090;fill-opacity:1"/></g></svg>