<svg xmlns="http://www.w3.org/2000/svg" xmlns:xlink="http://www.w3.org/1999/xlink" id="Layer_1" x="0" y="0" version="1.0" viewBox="0 0 150 150" xml:space="preserve" style="enable-background:new 0 0 150 150"><style type="text/css">.st0{fill:#008fc5}.st1{fill:#006287}.st2{fill:#017aa7}.st3{fill:url(#SVGID_1_)}.st4{fill:url(#SVGID_2_)}.st5{fill:url(#SVGID_3_)}.st6{fill:url(#SVGID_4_)}</style><path d="M33,129.3H117c4.4,0,7.3-3.7,7.2-7.4c0-1.7-0.7-3.4-2.1-4.9l-42-42h0l0,0l42-42c1.4-1.4,2.1-3.2,2.1-4.9	c0.1-3.8-2.8-7.4-7.2-7.4H33c-4,0-7.2,3.2-7.2,7.2v94.3C25.8,126.1,29,129.3,33,129.3z" class="st0"/><path d="M117,129.3c4.4,0,7.3-3.7,7.2-7.4c0-1.7-0.7-3.4-2.1-4.9l-42-42l-25,54.3H117z" class="st1"/><path d="M27.9,22.8c-1.3,1.3-2.1,3.1-2.1,5.1v94.3c0,2,0.8,3.8,2.1,5.1L80.1,75L27.9,22.8z" class="st2"/><g><linearGradient id="SVGID_1_" x1="80.085" x2="80.085" y1="75" y2="75" gradientUnits="userSpaceOnUse"><stop offset="0" style="stop-color:#fff"/><stop offset="1" style="stop-color:#008fc5"/></linearGradient><polygon points="80.1 75 80.1 75 80.1 75" class="st3"/><linearGradient id="SVGID_2_" x1="106.041" x2="102.094" y1="-37.575" y2="53.211" gradientUnits="userSpaceOnUse"><stop offset="0" style="stop-color:#fff"/><stop offset="1" style="stop-color:#008fc5"/></linearGradient><path d="M117,20.7h-11.9L80.1,75l42-42c1.4-1.4,2.1-3.2,2.1-4.9C124.3,24.3,121.4,20.7,117,20.7z" class="st4"/></g><g><linearGradient id="SVGID_3_" x1="25.833" x2="121.537" y1="127.218" y2="127.218" gradientUnits="userSpaceOnUse"><stop offset="0" style="stop-color:#002c45"/><stop offset="1" style="stop-color:#008fc5"/></linearGradient><polygon points="27.9 127.2 27.9 127.2 27.9 127.2 27.9 127.2" class="st5"/><linearGradient id="SVGID_4_" x1="25.833" x2="128.516" y1="102.167" y2="102.167" gradientUnits="userSpaceOnUse"><stop offset="0" style="stop-color:#002c45"/><stop offset="1" style="stop-color:#008fc5"/></linearGradient><path d="M27.9,127.2c1.3,1.3,3.1,2.1,5.1,2.1h22.1l25-54.3L27.9,127.2z" class="st6"/></g></svg>